<?xml version="1.0" ?><!DOCTYPE svg  PUBLIC '-//W3C//DTD SVG 1.1//EN'  'http://www.w3.org/Graphics/SVG/1.1/DTD/svg11.dtd'><svg enable-background="new 0 0 800 800" height="800px" id="GUIDE" version="1.1" viewBox="0 0 800 800" width="800px" xml:space="preserve" xmlns="http://www.w3.org/2000/svg" xmlns:cc="http://creativecommons.org/ns#" xmlns:dc="http://purl.org/dc/elements/1.1/" xmlns:inkscape="http://www.inkscape.org/namespaces/inkscape" xmlns:rdf="http://www.w3.org/1999/02/22-rdf-syntax-ns#" xmlns:sodipodi="http://sodipodi.sourceforge.net/DTD/sodipodi-0.dtd" xmlns:svg="http://www.w3.org/2000/svg" xmlns:xlink="http://www.w3.org/1999/xlink"><path d="M754.75,193.161L694.789,65.993c-4.463-9.458-15.748-13.512-25.208-9.051L352.878,206.273  c-4.545,2.141-8.049,6.003-9.745,10.729c-1.699,4.727-1.448,9.935,0.694,14.478l0.256,0.549l-149.465,70.479  c-4.544,2.141-8.051,5.998-9.75,10.729c-1.272,3.543-1.448,7.356-0.554,10.96L54.309,385.503  c-9.461,4.463-13.514,15.744-9.054,25.206l30.302,64.264c3.234,6.851,10.04,10.865,17.143,10.865c2.708,0,5.455-0.584,8.065-1.813  l130.006-61.304c2.209,2.983,5.268,5.272,8.813,6.548c2.073,0.743,4.239,1.115,6.402,1.115c2.763,0,5.525-0.604,8.075-1.808  l52.081-24.561v3.853c0,10.457,8.478,18.935,18.938,18.935h48.369L233.101,717.701c-4.545,9.424-0.593,20.74,8.827,25.285  c2.655,1.28,5.455,1.885,8.215,1.885c7.041,0,13.804-3.943,17.07-10.712l113.851-235.98v227.755  c0,10.459,8.478,18.938,18.938,18.938c10.458,0,18.936-8.479,18.936-18.938V498.179l113.856,235.98  c3.261,6.769,10.028,10.712,17.07,10.712c2.758,0,5.56-0.604,8.21-1.885c9.421-4.542,13.37-15.861,8.826-25.285L426.554,426.803  h48.37c10.46,0,18.938-8.478,18.938-18.935v-70.759l251.837-118.745c4.544-2.142,8.046-6.001,9.744-10.728  C757.143,202.911,756.89,197.703,754.75,193.161z M101.738,441.69L87.59,411.68l112.545-53.068l14.147,30.013L101.738,441.69z   M255.038,386.243l-27.142-57.558l132.343-62.4l27.14,57.554L255.038,386.243z M455.987,388.931H344.019v-2.771l59.512-28.065  l0.258,0.553c3.232,6.85,10.039,10.863,17.146,10.863c2.702,0,5.449-0.581,8.062-1.811l26.991-12.728L455.987,388.931  L455.987,388.931z M429.969,325.366l-0.246-0.525c-0.005-0.008-0.005-0.019-0.011-0.026l-43.294-91.812c0-0.003,0-0.005,0-0.005  l-0.257-0.544L668.608,99.275l43.807,92.911L429.969,325.366z" fill="#041C3F"/></svg>